<?xml version="1.0" encoding="UTF-8"?>
<svg id="Camada_2" data-name="Camada 2" xmlns="http://www.w3.org/2000/svg" viewBox="0 0 57.11 87.44">
  <defs>
    <style>
      .cls-1 {
        fill: none;
        stroke: #fff;
        stroke-miterlimit: 10;
        stroke-width: 5px;
      }
    </style>
  </defs>
  <g id="Camada_1-2" data-name="Camada 1">
    <path class="cls-1" d="m28.59,83.54c-2.02-2.59-4.13-4.96-5.87-7.58-3.61-5.44-7.24-10.89-10.46-16.56-4-7.03-7.21-14.45-8.92-22.41-.83-3.85-1.01-7.8-.69-11.7.39-4.81,2.51-9.06,5.31-12.9,3.52-4.82,8.47-7.66,14.12-9.16,3.46-.92,7.04-.86,10.65-.4,4.85.61,9.04,2.55,12.73,5.56,3.11,2.53,5.54,5.71,7,9.49.79,2.05,1.43,4.18,1.87,6.33.32,1.52.29,3.14.24,4.71-.05,1.91-.2,3.82-.46,5.71-.59,4.37-1.72,8.61-3.45,12.66-1.34,3.14-2.62,6.33-4.25,9.33-2.4,4.43-4.95,8.8-7.69,13.03-2.67,4.13-5.65,8.06-8.51,12.06-.42.58-.95,1.08-1.64,1.85Zm12.96-53.27c0-6.59-5.38-12.85-13.03-12.89-7.07-.04-13.08,6.12-12.83,13.56.22,6.37,5.84,12.83,13.67,12.49,6.07-.26,12.34-5.85,12.18-13.16Z"/>
  </g>
</svg>