<?xml version="1.0" encoding="UTF-8"?>
<svg id="Camada_2" data-name="Camada 2" xmlns="http://www.w3.org/2000/svg" viewBox="0 0 67.14 67.14">
  <defs>
    <style>
      .cls-1 {
        fill: #fbfbfb;
      }
    </style>
  </defs>
  <g id="Camada_1-2" data-name="Camada 1">
    <path class="cls-1" d="m33.61,0C15.13,0,.08,15.03.07,33.52c0,5.91,1.54,11.68,4.48,16.76L0,67.14l17.57-4.15c4.9,2.67,10.41,4.08,16.03,4.08h.01c18.48,0,33.52-15.04,33.53-33.52,0-8.96-3.48-17.38-9.81-23.72C51,3.49,42.58,0,33.61,0Zm0,6.71c7.17,0,13.91,2.8,18.98,7.86,5.07,5.07,7.85,11.8,7.84,18.97,0,14.78-12.03,26.81-26.82,26.81-4.48,0-8.91-1.13-12.81-3.26l-2.26-1.23-2.5.59-6.61,1.56,1.61-5.99.73-2.69-1.39-2.41c-2.34-4.06-3.58-8.69-3.58-13.4,0-14.78,12.04-26.8,26.82-26.8Zm-11.86,11.33c-.56,0-1.47.21-2.24,1.05-.77.84-2.94,2.86-2.94,6.98s3,8.11,3.42,8.67c.42.56,5.8,9.28,14.31,12.64,7.08,2.79,8.51,2.24,10.05,2.1,1.54-.14,4.96-2.02,5.66-3.98.7-1.96.7-3.64.49-3.99-.21-.35-.77-.56-1.61-.98-.84-.42-4.96-2.44-5.72-2.72s-1.33-.42-1.89.42c-.56.84-2.16,2.72-2.65,3.28-.49.56-.98.64-1.82.22-.84-.42-3.54-1.31-6.74-4.16-2.49-2.22-4.17-4.96-4.66-5.8-.49-.84-.05-1.3.37-1.71.38-.38.83-.98,1.25-1.47.42-.49.56-.84.84-1.4.28-.56.14-1.05-.07-1.47-.21-.42-1.84-4.56-2.58-6.22-.63-1.39-1.29-1.43-1.89-1.45-.49-.02-1.04-.02-1.6-.02Z"/>
  </g>
</svg>